<svg width="1200" height="1200" viewBox="0 0 1200 1200" fill="none" xmlns="http://www.w3.org/2000/svg">
<path d="M635.473 1187.57C635.473 1187.57 610.788 1158.04 610.788 1102.2H589.432C589.432 1158.04 564.734 1187.57 564.734 1187.57" fill="#F14A16"/>
<mask id="mask0_1032_662" style="mask-type:luminance" maskUnits="userSpaceOnUse" x="526" y="1063" width="148" height="137">
<path d="M526.618 1063.72H673.736V1200H526.618V1063.72Z" fill="white"/>
</mask>
<g mask="url(#mask0_1032_662)">
<path d="M635.473 1187.57C635.473 1187.57 610.788 1158.04 610.788 1102.2H589.432C589.432 1158.04 564.734 1187.57 564.734 1187.57" stroke="#515C19" stroke-width="2.53365"/>
</g>
<path d="M1042.99 478.459C1042.99 810.537 792.012 1102.9 600.136 1102.9C415.625 1102.9 157.274 837.233 157.274 478.459C157.261 216.119 337.589 3.43219 600.136 3.43219C862.657 3.43219 1042.99 216.106 1042.99 478.459Z" fill="#F14A16"/>
<mask id="mask1_1032_662" style="mask-type:luminance" maskUnits="userSpaceOnUse" x="154" y="0" width="893" height="1143">
<path d="M154 0H1046.97V1142.35H154V0Z" fill="white"/>
</mask>
<g mask="url(#mask1_1032_662)">
<path d="M1042.99 478.459C1042.99 810.536 792.012 1102.9 600.137 1102.9C415.625 1102.9 157.274 837.233 157.274 478.459C157.261 216.119 337.589 3.43213 600.137 3.43213C862.657 3.43213 1042.99 216.106 1042.99 478.459Z" stroke="#515C19" stroke-width="2.53365"/>
</g>
<mask id="mask2_1032_662" style="mask-type:luminance" maskUnits="userSpaceOnUse" x="564" y="1176" width="73" height="24">
<path d="M564.253 1176.54H636.101V1200H564.253V1176.54Z" fill="white"/>
</mask>
<g mask="url(#mask2_1032_662)">
<path d="M635.486 1187.57C635.486 1188.21 635.259 1188.85 634.804 1189.49C634.35 1190.12 633.682 1190.73 632.786 1191.32C631.904 1191.92 630.808 1192.48 629.525 1193.03C628.229 1193.56 626.772 1194.06 625.128 1194.51C623.485 1194.97 621.694 1195.38 619.769 1195.73C617.831 1196.09 615.8 1196.39 613.648 1196.63C611.497 1196.89 609.291 1197.08 607.019 1197.2C604.734 1197.33 602.435 1197.38 600.11 1197.38C597.784 1197.38 595.486 1197.33 593.214 1197.2C590.928 1197.08 588.723 1196.89 586.572 1196.63C584.433 1196.39 582.388 1196.09 580.464 1195.73C578.526 1195.38 576.749 1194.97 575.105 1194.51C573.461 1194.06 571.991 1193.56 570.708 1193.03C569.411 1192.48 568.329 1191.92 567.434 1191.32C566.551 1190.73 565.87 1190.12 565.415 1189.49C564.974 1188.85 564.747 1188.21 564.747 1187.57C564.747 1186.93 564.974 1186.28 565.415 1185.66C565.87 1185.02 566.551 1184.4 567.434 1183.81C568.329 1183.21 569.411 1182.65 570.708 1182.12C571.991 1181.57 573.461 1181.08 575.105 1180.62C576.749 1180.17 578.526 1179.77 580.464 1179.41C582.388 1179.05 584.433 1178.74 586.572 1178.5C588.723 1178.25 590.928 1178.06 593.214 1177.94C595.486 1177.82 597.784 1177.75 600.11 1177.75C602.435 1177.75 604.734 1177.82 607.019 1177.94C609.291 1178.06 611.497 1178.25 613.648 1178.5C615.8 1178.74 617.831 1179.05 619.769 1179.41C621.694 1179.77 623.485 1180.17 625.128 1180.62C626.772 1181.08 628.229 1181.57 629.525 1182.12C630.808 1182.65 631.904 1183.21 632.786 1183.81C633.682 1184.4 634.35 1185.02 634.804 1185.66C635.259 1186.28 635.486 1186.93 635.486 1187.57Z" fill="#F14A16"/>
</g>
<mask id="mask3_1032_662" style="mask-type:luminance" maskUnits="userSpaceOnUse" x="526" y="1138" width="148" height="62">
<path d="M526.618 1138.93H673.736V1200H526.618V1138.93Z" fill="white"/>
</mask>
<g mask="url(#mask3_1032_662)">
<path d="M635.486 1187.57C635.486 1188.21 635.259 1188.85 634.805 1189.49C634.35 1190.12 633.682 1190.73 632.787 1191.32C631.905 1191.92 630.809 1192.48 629.526 1193.03C628.229 1193.56 626.773 1194.06 625.129 1194.51C623.485 1194.96 621.694 1195.38 619.769 1195.73C617.832 1196.09 615.8 1196.39 613.649 1196.63C611.497 1196.89 609.292 1197.07 607.02 1197.19C604.734 1197.33 602.436 1197.38 600.11 1197.38C597.785 1197.38 595.486 1197.33 593.214 1197.19C590.929 1197.07 588.724 1196.89 586.572 1196.63C584.433 1196.39 582.389 1196.09 580.464 1195.73C578.526 1195.38 576.749 1194.96 575.105 1194.51C573.461 1194.06 571.991 1193.56 570.708 1193.03C569.412 1192.48 568.329 1191.92 567.434 1191.32C566.552 1190.73 565.87 1190.12 565.416 1189.49C564.975 1188.85 564.747 1188.21 564.747 1187.57C564.747 1186.93 564.975 1186.28 565.416 1185.66C565.87 1185.02 566.552 1184.4 567.434 1183.81C568.329 1183.21 569.412 1182.65 570.708 1182.12C571.991 1181.57 573.461 1181.08 575.105 1180.62C576.749 1180.17 578.526 1179.77 580.464 1179.41C582.389 1179.05 584.433 1178.74 586.572 1178.5C588.724 1178.24 590.929 1178.06 593.214 1177.94C595.486 1177.82 597.785 1177.75 600.11 1177.75C602.436 1177.75 604.734 1177.82 607.02 1177.94C609.292 1178.06 611.497 1178.24 613.649 1178.5C615.8 1178.74 617.832 1179.05 619.769 1179.41C621.694 1179.77 623.485 1180.17 625.129 1180.62C626.773 1181.08 628.229 1181.57 629.526 1182.12C630.809 1182.65 631.905 1183.21 632.787 1183.81C633.682 1184.4 634.35 1185.02 634.805 1185.66C635.259 1186.28 635.486 1186.93 635.486 1187.57Z" stroke="#515C19" stroke-width="2.53365"/>
</g>
<path d="M616.174 76.0149C616.174 76.0149 937.994 244.925 863.219 813.368C863.219 813.368 1026.73 547.65 947.737 329.367C861.441 90.852 616.161 76.0016 616.161 76.0016L616.174 76.0149Z" fill="white"/>
<path d="M640.161 253.895C699.206 253.895 747.158 273.633 784.017 313.083C820.904 352.506 839.347 403.828 839.347 467.036C839.347 529.75 821.291 580.444 785.194 619.119C749.122 657.768 701.291 677.079 641.711 677.079C574.781 677.079 525.626 651.999 494.273 601.812V825.957H404.089V257.047H494.273V329.162C525.626 278.989 574.26 253.895 640.161 253.895ZM529.93 562.282C553.732 587.602 584.19 600.263 621.29 600.263C658.417 600.263 688.875 587.602 712.651 562.282C736.453 536.935 748.361 504.149 748.361 463.938C748.361 424.768 736.453 392.517 712.651 367.196C688.875 341.849 658.417 329.162 621.29 329.162C584.19 329.162 553.732 341.849 529.93 367.196C506.154 392.517 494.273 424.768 494.273 463.938C494.273 504.149 506.154 536.935 529.93 562.282Z" fill="white"/>
</svg>
